<?xml version="1.0" standalone="no"?>
<!DOCTYPE svg PUBLIC "-//W3C//DTD SVG 20010904//EN"
 "http://www.w3.org/TR/2001/REC-SVG-20010904/DTD/svg10.dtd">
<svg version="1.0" xmlns="http://www.w3.org/2000/svg"
 width="680.000000pt" height="680.000000pt" viewBox="0 0 680.000000 680.000000"
 preserveAspectRatio="xMidYMid meet">
<metadata>
Created by potrace 1.14, written by Peter Selinger 2001-2017
</metadata>
<g transform="translate(0.000000,680.000000) scale(0.100000,-0.100000)"
fill="#000000" stroke="none">
<path d="M20 4255 c0 -11 10 -15 35 -15 l35 0 0 -340 0 -340 -35 0 c-19 0 -35
-4 -35 -10 0 -13 157 -13 165 -1 3 6 -12 11 -32 13 l-38 3 -3 319 c-1 176 1
316 5 312 5 -4 62 -154 128 -334 83 -226 125 -327 135 -327 11 0 50 101 132
340 l117 340 0 -327 1 -328 -35 0 c-19 0 -35 -4 -35 -10 0 -6 65 -10 175 -10
102 0 175 4 175 9 0 6 -15 11 -32 13 l-33 3 -3 338 -2 337 35 0 c25 0 35 4 35
15 0 13 -21 15 -146 13 l-146 -3 -71 -207 c-39 -114 -75 -204 -78 -200 -4 4
-41 97 -82 207 l-75 200 -146 3 c-125 2 -146 0 -146 -13z"/>
<path d="M2266 4241 c-48 -50 -36 -135 24 -166 49 -25 88 -19 126 19 38 38 44
77 19 126 -20 38 -43 50 -97 50 -36 0 -50 -6 -72 -29z"/>
<path d="M2764 4252 c-107 -37 -164 -113 -164 -218 l0 -43 -40 -3 c-52 -4 -52
-22 0 -26 l40 -3 -2 -197 -3 -197 -42 -3 c-24 -2 -43 -7 -43 -13 0 -5 128 -9
325 -9 195 0 325 4 325 9 0 6 -15 11 -32 13 l-33 3 -3 213 -2 212 -156 0 -157
0 5 83 c7 129 45 177 140 177 l43 0 -28 -23 c-54 -44 -52 -133 3 -162 83 -43
160 13 150 110 -8 81 -190 124 -326 77z m144 -489 l-3 -198 -62 -3 -63 -3 0
201 0 200 65 0 65 0 -2 -197z"/>
<path d="M4340 4100 c-14 -5 -51 -11 -82 -15 l-58 -6 0 -45 c0 -44 0 -44 -35
-44 -24 0 -35 -5 -35 -15 0 -10 11 -15 35 -15 l35 0 0 -169 c0 -93 4 -181 10
-195 16 -42 52 -59 129 -58 42 0 80 6 99 16 30 16 82 70 82 87 0 18 -29 9 -35
-11 -9 -28 -56 -51 -78 -39 -15 9 -17 30 -17 189 l0 180 50 0 c38 0 50 4 50
15 0 11 -12 15 -50 15 l-50 0 0 60 c0 63 -3 66 -50 50z"/>
<path d="M5512 4019 c-29 -16 -56 -37 -59 -44 -10 -28 -23 -15 -23 25 0 33 -3
40 -20 40 -20 0 -20 -7 -20 -350 l0 -350 25 0 25 0 0 146 0 147 44 -41 c113
-104 272 -72 348 69 32 62 33 195 1 254 -68 127 -205 171 -321 104z m177 -33
c48 -26 97 -89 111 -145 30 -126 -63 -261 -182 -261 -48 0 -116 38 -149 83
-27 37 -29 46 -29 135 0 87 2 98 26 129 50 65 156 93 223 59z"/>
<path d="M6090 4034 c-148 -64 -198 -273 -97 -406 82 -108 233 -127 343 -43
47 36 94 135 94 200 0 105 -57 203 -143 244 -52 25 -145 28 -197 5z m169 -49
c47 -24 99 -92 110 -145 27 -125 -69 -259 -185 -260 -80 0 -163 71 -184 158
-31 130 61 262 182 262 27 0 62 -7 77 -15z"/>
<path d="M6712 4039 c-19 -6 -53 -30 -78 -54 l-44 -44 0 49 c0 47 -2 50 -25
50 l-25 0 0 -250 0 -250 25 0 25 0 0 155 c0 136 3 161 20 195 24 48 71 85 128
99 35 10 42 16 42 36 0 27 -12 30 -68 14z"/>
<path d="M1900 3989 c-42 -13 -58 -25 -82 -64 l-18 -30 0 48 0 48 -125 -3
c-73 -2 -126 -7 -128 -13 -1 -5 13 -11 31 -13 l32 -3 0 -200 0 -199 -35 0
c-19 0 -35 -4 -35 -10 0 -6 57 -10 150 -10 93 0 150 4 150 10 0 6 -9 10 -20
10 -19 0 -20 7 -20 123 0 86 5 137 16 169 18 53 44 81 68 72 14 -5 16 -28 16
-185 0 -152 -2 -179 -15 -179 -8 0 -15 -4 -15 -10 0 -6 55 -10 145 -10 83 0
145 4 145 9 0 6 -15 11 -32 13 l-33 3 -5 175 c-5 185 -12 215 -59 239 -30 16
-93 21 -131 10z"/>
<path d="M3390 3993 c-137 -23 -200 -96 -200 -231 0 -125 63 -201 188 -224
113 -21 214 16 263 96 23 37 24 46 5 46 -8 0 -17 -9 -21 -19 -10 -32 -81 -89
-119 -97 -40 -7 -77 11 -97 47 -6 12 -13 57 -16 100 l-6 79 137 0 c75 0 136 3
136 8 0 26 -26 91 -47 119 -41 53 -146 89 -223 76z m69 -54 c6 -18 11 -54 11
-80 l0 -49 -41 0 -42 0 6 59 c8 97 44 134 66 70z"/>
<path d="M3848 3990 c-79 -14 -122 -65 -122 -144 0 -76 25 -111 109 -151 39
-18 92 -41 118 -50 58 -20 69 -41 38 -67 -30 -24 -105 -24 -151 0 -19 10 -50
41 -68 68 -19 27 -39 49 -45 49 -8 0 -13 -28 -15 -82 -3 -91 1 -96 49 -62 l30
21 52 -22 c86 -37 190 -15 240 51 28 38 33 108 12 152 -21 45 -63 72 -173 111
-99 36 -119 57 -83 87 47 38 126 16 180 -52 47 -58 61 -52 61 25 0 36 -4 67
-9 71 -5 3 -25 -4 -45 -16 -31 -18 -37 -19 -58 -6 -30 19 -75 25 -120 17z"/>
<path d="M4731 3989 c-110 -22 -179 -99 -188 -212 -4 -54 -1 -69 24 -117 53
-100 162 -146 285 -121 162 34 238 208 152 348 -49 80 -166 124 -273 102z m97
-56 c12 -29 16 -68 16 -168 0 -146 -15 -205 -54 -205 -39 0 -54 59 -54 205 0
146 15 205 54 205 15 0 26 -11 38 -37z"/>
<path d="M1060 3975 c-54 -25 -70 -44 -70 -85 0 -67 68 -105 144 -80 42 14 56
35 56 84 0 30 -6 40 -32 56 -30 18 -31 20 -10 20 57 0 92 -49 92 -130 l0 -50
-67 0 c-123 0 -193 -36 -213 -110 -13 -47 5 -100 42 -124 61 -40 160 -28 210
26 l28 30 11 -26 c17 -37 85 -60 153 -53 61 6 110 28 120 53 10 25 -1 30 -23
10 -11 -10 -30 -16 -43 -14 -23 3 -23 5 -28 153 -6 172 -12 190 -83 227 -56
29 -232 37 -287 13z m180 -256 c0 -92 -52 -146 -79 -81 -21 51 16 132 61 132
15 0 18 -8 18 -51z"/>
<path d="M2182 3978 c3 -7 19 -14 36 -16 l32 -3 -2 -197 -3 -197 -32 -3 c-18
-2 -33 -7 -33 -13 0 -5 67 -9 160 -9 100 0 160 4 160 10 0 6 -13 10 -30 10
l-30 0 -2 213 -3 212 -128 3 c-101 2 -128 0 -125 -10z"/>
<path d="M4130 3285 c0 -10 10 -15 30 -15 l30 0 0 -172 0 -173 -20 32 c-29 48
-63 66 -124 65 -61 0 -99 -17 -144 -63 -41 -42 -56 -89 -56 -169 0 -114 56
-194 154 -220 24 -6 58 -9 76 -5 38 7 92 48 104 79 7 16 9 9 9 -26 l1 -48 130
0 c74 0 130 4 130 9 0 6 -15 11 -32 13 l-33 3 -3 353 -2 352 -125 0 c-104 0
-125 -2 -125 -15z m15 -331 c32 -35 45 -83 45 -169 0 -82 -24 -144 -65 -171
-27 -18 -28 -17 -45 4 -32 39 -38 288 -9 345 14 25 46 21 74 -9z"/>
<path d="M927 3274 c-11 -12 -8 -604 3 -646 13 -46 34 -58 97 -58 57 0 76 10
67 34 -5 14 -14 17 -40 13 -23 -4 -40 0 -54 11 -19 16 -20 29 -23 332 -2 309
-2 315 -22 318 -12 2 -24 0 -28 -4z"/>
<path d="M1270 3071 c-14 -5 -44 -18 -68 -30 -37 -19 -41 -24 -32 -41 6 -11
12 -20 15 -20 2 0 27 12 56 26 129 65 249 10 249 -114 l0 -43 -52 8 c-186 28
-308 -28 -308 -140 0 -86 77 -157 170 -157 44 0 127 29 158 55 37 31 42 31 42
2 0 -29 18 -47 47 -47 27 0 30 25 8 54 -12 16 -15 54 -15 175 0 143 -2 159
-23 196 -30 54 -92 85 -167 84 -30 0 -66 -4 -80 -8z m160 -254 l55 -12 3 -51
c4 -61 -20 -97 -82 -125 -82 -37 -180 -18 -211 41 -34 66 -3 123 80 145 60 16
83 17 155 2z"/>
<path d="M1753 3061 c-65 -30 -95 -98 -74 -164 14 -42 59 -68 169 -97 102 -28
132 -49 132 -96 0 -96 -162 -129 -268 -54 -43 30 -46 31 -59 14 -11 -15 -10
-20 2 -34 46 -51 182 -83 262 -61 90 24 136 99 111 177 -16 48 -58 73 -176
104 -103 28 -138 55 -128 103 9 42 32 65 79 78 54 14 117 4 163 -27 33 -23 39
-24 52 -10 13 13 13 17 1 32 -43 53 -185 71 -266 35z"/>
<path d="M2677 3018 c-27 -7 -47 -22 -68 -51 l-29 -40 0 46 0 47 -125 0 c-104
0 -125 -2 -125 -15 0 -10 11 -15 35 -15 l35 0 -2 -197 -3 -198 -32 -3 c-18 -2
-33 -7 -33 -13 0 -5 62 -9 145 -9 132 0 179 9 123 23 -21 6 -21 8 -15 142 7
143 29 225 60 225 24 0 27 -23 27 -201 0 -144 -2 -169 -15 -169 -8 0 -15 -4
-15 -10 0 -6 48 -10 125 -10 77 0 125 4 125 10 0 6 -7 10 -16 10 -25 0 -16
279 10 333 12 24 25 37 35 35 14 -3 16 -27 19 -186 2 -157 0 -182 -13 -182 -8
0 -15 -4 -15 -10 0 -6 55 -10 145 -10 90 0 145 4 145 10 0 6 -16 10 -35 10
l-35 0 0 165 c0 182 -8 220 -55 251 -35 23 -110 23 -153 0 -18 -9 -40 -33 -49
-52 l-17 -34 -10 31 c-20 59 -92 87 -169 67z"/>
<path d="M4810 3017 c-22 -8 -44 -26 -60 -51 l-25 -39 -3 47 -3 46 -125 0
c-104 0 -124 -2 -124 -15 0 -10 11 -15 35 -15 l35 0 -2 -197 -3 -198 -32 -3
c-18 -2 -33 -7 -33 -13 0 -5 71 -9 170 -9 100 0 170 4 170 9 0 6 -19 11 -42
13 l-43 3 2 127 c1 69 7 145 13 169 14 52 68 109 102 108 21 -1 21 -2 3 -7
-92 -31 -103 -147 -18 -191 63 -32 140 11 150 85 12 95 -74 163 -167 131z"/>
<path d="M5198 3019 c-131 -21 -203 -126 -184 -267 9 -69 52 -131 110 -161 39
-20 64 -25 125 -26 42 0 88 3 103 8 35 9 94 61 114 98 17 34 17 39 1 39 -7 0
-21 -16 -30 -35 -18 -39 -65 -72 -113 -81 -68 -13 -104 38 -107 149 l-2 72
134 3 134 3 -6 37 c-19 114 -140 184 -279 161z m82 -45 c6 -14 10 -50 10 -80
l0 -54 -41 0 -42 0 7 54 c8 71 22 106 41 106 9 0 20 -12 25 -26z"/>
<path d="M5666 3019 c-85 -20 -122 -72 -114 -164 7 -84 40 -113 187 -164 86
-31 104 -50 77 -80 -15 -16 -31 -21 -70 -21 -67 0 -112 25 -154 86 -19 27 -38
51 -43 52 -5 2 -9 -34 -9 -82 0 -47 4 -86 9 -86 4 0 20 9 35 21 l27 21 49 -21
c85 -37 171 -22 232 39 35 34 38 43 38 91 0 97 -30 125 -189 183 -98 36 -118
57 -82 87 47 38 129 15 182 -52 46 -59 59 -52 59 31 0 77 -5 82 -51 50 -25
-19 -31 -19 -56 -7 -40 20 -82 25 -127 16z"/>
<path d="M3345 3005 c-74 -27 -97 -89 -52 -140 28 -33 81 -42 130 -21 65 27
72 101 13 137 l-31 19 31 0 c50 0 77 -38 82 -115 l4 -65 -68 0 c-92 0 -141
-15 -181 -55 -29 -29 -33 -40 -33 -84 0 -41 5 -57 24 -76 58 -58 173 -55 229
6 16 17 29 29 30 27 18 -35 29 -46 58 -60 62 -32 170 -18 217 30 30 29 14 46
-17 18 -23 -20 -57 -21 -65 0 -3 9 -6 75 -6 148 0 122 -2 136 -23 167 -36 54
-86 73 -202 76 -70 2 -112 -1 -140 -12z m175 -264 c0 -43 -5 -65 -19 -82 -29
-36 -55 -16 -59 44 -3 39 1 51 22 72 42 42 56 34 56 -34z"/>
</g>
</svg>
